<svg xmlns="http://www.w3.org/2000/svg" version="1.1" xmlns:xlink="http://www.w3.org/1999/xlink" xmlns:svgjs="http://svgjs.dev/svgjs" width="128" height="128" viewBox="0 0 128 128"><g transform="matrix(0.8046875,0,0,0.8046875,12.612792253521128,12.612792253521128)"><svg viewBox="0 0 142 142" data-background-color="#ffffff" preserveAspectRatio="xMidYMid meet" height="128" width="128" xmlns="http://www.w3.org/2000/svg" xmlns:xlink="http://www.w3.org/1999/xlink"><g id="tight-bounds" transform="matrix(1,0,0,1,-0.15550000000000352,-0.15550000000000352)"><svg viewBox="0 0 142.31066447748242 142.31066447748242" height="142.31066447748242" width="142.31066447748242"><g><svg></svg></g><g><svg viewBox="0 0 142.31066447748242 142.31066447748242" height="142.31066447748242" width="142.31066447748242"><g><path d="M0 71.155c0-39.298 31.857-71.155 71.155-71.155 39.298 0 71.155 31.857 71.156 71.155 0 39.298-31.857 71.155-71.156 71.156-39.298 0-71.155-31.857-71.155-71.156zM71.155 134.886c35.197 0 63.731-28.533 63.731-63.731 0-35.197-28.533-63.731-63.731-63.73-35.197 0-63.731 28.533-63.73 63.73 0 35.197 28.533 63.731 63.73 63.731z" data-fill-palette-color="tertiary" fill="#2fae77" stroke="transparent"></path><ellipse rx="68.30911894919156" ry="68.30911894919156" cx="71.15533223874121" cy="71.15533223874121" fill="#2fae77" stroke="transparent" stroke-width="0" fill-opacity="1" data-fill-palette-color="tertiary"></ellipse></g><g transform="matrix(1,0,0,1,42.750637704964845,29.989108276746492)"><svg viewBox="0 0 56.80938906755272 82.33244792398943" height="82.33244792398943" width="56.80938906755272"><g><svg viewBox="0 0 56.80938906755272 82.33244792398943" height="82.33244792398943" width="56.80938906755272"><g><svg viewBox="0 0 56.80938906755272 82.33244792398943" height="82.33244792398943" width="56.80938906755272"><g id="textblocktransform"><svg viewBox="0 0 56.80938906755272 82.33244792398943" height="82.33244792398943" width="56.80938906755272" id="textblock"><g><svg viewBox="0 0 56.80938906755272 82.33244792398943" height="82.33244792398943" width="56.80938906755272"><g transform="matrix(1,0,0,1,0,0)"><svg width="56.80938906755272" viewBox="3.9 -35 24.150000000000002 35" height="82.33244792398943" data-palette-color="#ffffff"><path d="M26.8 0L5.1 0Q4.6 0 4.25-0.35 3.9-0.7 3.9-1.2L3.9-1.2 3.9-33.8Q3.9-34.3 4.25-34.65 4.6-35 5.1-35L5.1-35 9.75-35Q10.25-35 10.6-34.65 10.95-34.3 10.95-33.8L10.95-33.8 10.95-5.95 26.8-5.95Q27.35-5.95 27.7-5.6 28.05-5.25 28.05-4.7L28.05-4.7 28.05-1.2Q28.05-0.7 27.7-0.35 27.35 0 26.8 0L26.8 0Z" opacity="1" transform="matrix(1,0,0,1,0,0)" fill="#ffffff" class="wordmark-text-0" data-fill-palette-color="quaternary" id="text-0"></path></svg></g></svg></g></svg></g></svg></g><g></g></svg></g></svg></g></svg></g><defs></defs></svg><rect width="142.31066447748242" height="142.31066447748242" fill="none" stroke="none" visibility="hidden"></rect></g></svg></g></svg>